<mxfile host="app.diagrams.net" modified="2023-10-13T08:59:29.769Z" agent="Mozilla/5.0 (Windows NT 10.0; Win64; x64) AppleWebKit/537.36 (KHTML, like Gecko) Chrome/118.0.0.0 Safari/537.36" etag="e5axpDUonaAUwsqDxq8x" version="22.0.4" type="github">
  <diagram name="第 1 页" id="notmAqu5Y59gomSRdQoX">
    <mxGraphModel dx="1050" dy="581" grid="0" gridSize="10" guides="1" tooltips="1" connect="1" arrows="1" fold="1" page="0" pageScale="1" pageWidth="827" pageHeight="1169" math="0" shadow="0">
      <root>
        <mxCell id="0" />
        <mxCell id="1" parent="0" />
        <mxCell id="thlr4HFNivFC7oxv3Uz--3" value="" style="edgeStyle=orthogonalEdgeStyle;rounded=0;orthogonalLoop=1;jettySize=auto;html=1;entryX=0;entryY=0.5;entryDx=0;entryDy=0;" edge="1" parent="1" source="thlr4HFNivFC7oxv3Uz--1" target="thlr4HFNivFC7oxv3Uz--2">
          <mxGeometry relative="1" as="geometry" />
        </mxCell>
        <mxCell id="thlr4HFNivFC7oxv3Uz--5" style="edgeStyle=orthogonalEdgeStyle;rounded=0;orthogonalLoop=1;jettySize=auto;html=1;entryX=0;entryY=0.5;entryDx=0;entryDy=0;" edge="1" parent="1" source="thlr4HFNivFC7oxv3Uz--1" target="thlr4HFNivFC7oxv3Uz--4">
          <mxGeometry relative="1" as="geometry" />
        </mxCell>
        <mxCell id="thlr4HFNivFC7oxv3Uz--1" value="端口扫描" style="rounded=1;whiteSpace=wrap;html=1;" vertex="1" parent="1">
          <mxGeometry x="114" y="221" width="120" height="60" as="geometry" />
        </mxCell>
        <mxCell id="thlr4HFNivFC7oxv3Uz--2" value="22 / SSH" style="whiteSpace=wrap;html=1;rounded=1;" vertex="1" parent="1">
          <mxGeometry x="320" y="130" width="120" height="60" as="geometry" />
        </mxCell>
        <mxCell id="thlr4HFNivFC7oxv3Uz--8" value="" style="edgeStyle=orthogonalEdgeStyle;rounded=0;orthogonalLoop=1;jettySize=auto;html=1;" edge="1" parent="1" source="thlr4HFNivFC7oxv3Uz--4" target="thlr4HFNivFC7oxv3Uz--7">
          <mxGeometry relative="1" as="geometry" />
        </mxCell>
        <mxCell id="thlr4HFNivFC7oxv3Uz--4" value="80 / HTTP" style="whiteSpace=wrap;html=1;rounded=1;" vertex="1" parent="1">
          <mxGeometry x="320" y="306" width="120" height="60" as="geometry" />
        </mxCell>
        <mxCell id="thlr4HFNivFC7oxv3Uz--10" value="" style="edgeStyle=orthogonalEdgeStyle;rounded=0;orthogonalLoop=1;jettySize=auto;html=1;" edge="1" parent="1" source="thlr4HFNivFC7oxv3Uz--7" target="thlr4HFNivFC7oxv3Uz--9">
          <mxGeometry relative="1" as="geometry" />
        </mxCell>
        <mxCell id="thlr4HFNivFC7oxv3Uz--7" value="进行扫描, 我们可以获取到以下内容&lt;br&gt;&lt;ol&gt;&lt;li&gt;一个用户 jessie&lt;/li&gt;&lt;li&gt;一个 SSH 私钥&lt;/li&gt;&lt;/ol&gt;" style="whiteSpace=wrap;html=1;rounded=1;align=left;verticalAlign=top;" vertex="1" parent="1">
          <mxGeometry x="520" y="306" width="214" height="64" as="geometry" />
        </mxCell>
        <mxCell id="thlr4HFNivFC7oxv3Uz--12" value="" style="edgeStyle=orthogonalEdgeStyle;rounded=0;orthogonalLoop=1;jettySize=auto;html=1;" edge="1" parent="1" source="thlr4HFNivFC7oxv3Uz--9" target="thlr4HFNivFC7oxv3Uz--11">
          <mxGeometry relative="1" as="geometry" />
        </mxCell>
        <mxCell id="thlr4HFNivFC7oxv3Uz--9" value="使用得到的私钥进行连接 jessie 用户" style="whiteSpace=wrap;html=1;align=center;verticalAlign=middle;rounded=1;" vertex="1" parent="1">
          <mxGeometry x="561" y="130" width="132" height="46" as="geometry" />
        </mxCell>
        <mxCell id="thlr4HFNivFC7oxv3Uz--11" value="用户 jessie 具有 SUDO 特权" style="whiteSpace=wrap;html=1;rounded=1;" vertex="1" parent="1">
          <mxGeometry x="769" y="125.5" width="170" height="55" as="geometry" />
        </mxCell>
      </root>
    </mxGraphModel>
  </diagram>
</mxfile>
